<svg xmlns="http://www.w3.org/2000/svg" viewBox="0 0 445.18 432.66"><defs><style>.cls-1{fill:#fff;}.cls-2{fill:#ffd42a;}</style></defs><title>GUR_white_and_orange</title><g id="Layer_2" data-name="Layer 2"><g id="Layer_1-2" data-name="Layer 1"><polygon class="cls-1" points="186.75 194.32 198.48 204.18 199.2 215.48 196.38 215.03 183.74 199.52 186.75 194.32"/><path class="cls-2" d="M192.8,234.84l-.18-.09-2.68.78-4.64-1.34-3.48-3.36-.66-2.7L181,228l-31.87,68.8ZM180.07,208.9l11.61,14.26,8.08,1.31.91,14.34L110.52,363.74Z"/><path class="cls-1" d="M320.53,0c-37.6,10.65-112.8,112-126.91,136.35,0,0-20.78,3.74-24.26,9.76l-23.42,40.57,45.31-.16,14.54,12.21,3,47.51,34.56-60.38s9.05-13.19,3.68-19.64c8.44,6.82,1.82,19.42.35,22L234.91,210l11.25,34.52L269.59,204c3.47-6-3.68-25.89-3.68-25.89C280,153.66,330.11,37.89,320.54,0Z"/><polygon class="cls-1" points="338.55 60.3 306.59 133.18 330.04 173.8 275.11 268.94 200.87 268.94 153.73 333.06 200.77 292.44 288.68 292.44 357.18 173.8 326.9 121.35 338.55 60.3"/><polygon class="cls-1" points="259.29 14.54 212.15 78.66 165.25 78.66 110.33 173.8 147.44 238.09 115.49 310.98 127.14 249.93 83.18 173.79 151.68 55.15 212.25 55.15 259.29 14.54"/><path class="cls-1" d="M36.24,399.46v14.42a21.29,21.29,0,0,1-2.2,10,15.54,15.54,0,0,1-6.26,6.53,19.16,19.16,0,0,1-9.54,2.29,20.68,20.68,0,0,1-9.65-2.15,14.92,14.92,0,0,1-6.37-6.19A19.5,19.5,0,0,1,0,414.82V390.44a21.63,21.63,0,0,1,2.2-10,15.46,15.46,0,0,1,6.26-6.57A19.08,19.08,0,0,1,18,371.54a19,19,0,0,1,9.16,2.06,14.55,14.55,0,0,1,6,6.14,24.72,24.72,0,0,1,2.6,10.05h-10a12.87,12.87,0,0,0-1.26-4.89A7.09,7.09,0,0,0,21.85,382,7.41,7.41,0,0,0,18,381a8.36,8.36,0,0,0-4.45,1.16,7.4,7.4,0,0,0-2.9,3.29,11.57,11.57,0,0,0-1,5v24.38a9,9,0,0,0,1,4.45,7.19,7.19,0,0,0,3,2.93,9.69,9.69,0,0,0,4.57,1,8.81,8.81,0,0,0,4.49-1.09A7.22,7.22,0,0,0,25.66,419a11.14,11.14,0,0,0,1-5v-5.56H18.45v-9Z"/><path class="cls-1" d="M52.28,430.49a14.14,14.14,0,0,1-6-6.3,22,22,0,0,1-2.06-9.94V372.16h9.43v42.33A9.26,9.26,0,0,0,55.76,421a7.91,7.91,0,0,0,6.1,2.31A8,8,0,0,0,68,421a9.22,9.22,0,0,0,2.16-6.55V372.16h9.44v42.09a21.74,21.74,0,0,1-2.1,9.94,14.46,14.46,0,0,1-6.08,6.3,19.67,19.67,0,0,1-9.57,2.17A19.68,19.68,0,0,1,52.28,430.49Z"/><path class="cls-1" d="M109.63,372.12H119V432h-9.39ZM113.75,398h15.77a6.57,6.57,0,0,0,3.27-.8,5.25,5.25,0,0,0,2.16-2.31,8.39,8.39,0,0,0,.79-3.6V388a8.42,8.42,0,0,0-.74-3.62,5.47,5.47,0,0,0-2.17-2.41,6.36,6.36,0,0,0-3.31-.84H113.75v-9h15.56a18.42,18.42,0,0,1,8.57,1.87,13.32,13.32,0,0,1,5.6,5.4,16.62,16.62,0,0,1,2,8.29v3.51a17.1,17.1,0,0,1-2,8.42,13.41,13.41,0,0,1-5.62,5.47,18.09,18.09,0,0,1-8.55,1.92H113.75Zm11.86,7.17,9.3-1.9L147.56,432H136.77Z"/><path class="cls-1" d="M162.51,430.43a15.43,15.43,0,0,1-6.37-6.36,20.11,20.11,0,0,1-2.24-9.7V389.83a20.05,20.05,0,0,1,2.24-9.72,15.53,15.53,0,0,1,6.37-6.35,22.19,22.19,0,0,1,19.35,0,15.44,15.44,0,0,1,6.36,6.35,19.94,19.94,0,0,1,2.25,9.72v24.54a20,20,0,0,1-2.25,9.7,15.35,15.35,0,0,1-6.36,6.36,22.1,22.1,0,0,1-19.35,0Zm14.29-8.19a7.3,7.3,0,0,0,3-3.17,10.74,10.74,0,0,0,1-4.86V390a10.6,10.6,0,0,0-1-4.82,7.3,7.3,0,0,0-3-3.17,10.15,10.15,0,0,0-9.23,0,7.42,7.42,0,0,0-3,3.17,10.47,10.47,0,0,0-1,4.82v24.26a10.61,10.61,0,0,0,1,4.86,7.42,7.42,0,0,0,3,3.17,10.15,10.15,0,0,0,9.23,0Z"/><path class="cls-1" d="M210.69,432.66l-4-2.27a15,15,0,0,1-6.11-6.47,21.92,21.92,0,0,1-2.12-10V390.36a22.13,22.13,0,0,1,2.12-10.07,15,15,0,0,1,6.11-6.48,18.92,18.92,0,0,1,9.48-2.27,18.46,18.46,0,0,1,9.16,2.12,14.48,14.48,0,0,1,5.89,6.41,27.85,27.85,0,0,1,2.53,10.58h-9.59a16.44,16.44,0,0,0-1.32-5.4,7.75,7.75,0,0,0-2.72-3.27,7.1,7.1,0,0,0-4-1.09,7.79,7.79,0,0,0-4.31,1.15,7.62,7.62,0,0,0-2.78,3.28,11.8,11.8,0,0,0-1,5v23.52a12,12,0,0,0,1,5.06,7.4,7.4,0,0,0,2.78,3.26,8,8,0,0,0,4.31,1.11,7.15,7.15,0,0,0,4-1.09,7.76,7.76,0,0,0,2.7-3.28,16.31,16.31,0,0,0,1.32-5.39h9.59a27.47,27.47,0,0,1-2.55,10.58,14.62,14.62,0,0,1-5.93,6.41,18.41,18.41,0,0,1-9.1,2.12Z"/><path class="cls-1" d="M242,372.16h9.43V432H242Zm6.92,33.89,19.43-33.89h11.16l-30.72,49.09Zm7.41-5.76,7.16-6.14L281.69,432H270.77Z"/><path class="cls-1" d="M287.82,372.16h9.44V432h-9.44Zm4.2,0h28.54v9.06H292Zm0,25.66h25.25v9H292ZM292,423h28.54V432H292Z"/><path class="cls-1" d="M324.44,372.16h36.32v9H324.44Zm13.46,4.94h9.35V432H337.9Z"/><path class="cls-1" d="M367.1,372.12h9.39V432H367.1ZM371.22,398H387a6.61,6.61,0,0,0,3.28-.8,5.36,5.36,0,0,0,2.16-2.31,8.54,8.54,0,0,0,.78-3.6V388a8.42,8.42,0,0,0-.74-3.62,5.45,5.45,0,0,0-2.16-2.41,6.42,6.42,0,0,0-3.32-.84H371.22v-9h15.57a18.38,18.38,0,0,1,8.56,1.87,13.21,13.21,0,0,1,5.6,5.4,16.62,16.62,0,0,1,2,8.29v3.51a17.1,17.1,0,0,1-2,8.42,13.36,13.36,0,0,1-5.62,5.47,18.08,18.08,0,0,1-8.54,1.92H371.22Zm11.86,7.17,9.31-1.9L405,432H394.24Z"/><path class="cls-1" d="M430.56,408.15V432h-9.35V408.15l-14.78-36h10L425.87,398l9.35-25.86h10Z"/></g></g></svg>