<svg xmlns="http://www.w3.org/2000/svg" viewBox="0 0 274 363.74"><defs><style>.cls-1{fill:#fff;}.cls-2{fill:#ffd42a;}</style></defs><title>GUR_white_and_orange_no_text</title><g id="Layer_2" data-name="Layer 2"><g id="Layer_1-2" data-name="Layer 1"><polygon class="cls-1" points="103.56 194.32 115.3 204.18 116.02 215.48 113.19 215.03 100.56 199.52 103.56 194.32"/><path class="cls-2" d="M109.62,234.84l-.18-.09-2.68.78-4.64-1.34-3.48-3.36-.66-2.7L97.8,228l-31.87,68.8ZM96.89,208.9l11.61,14.26,8.08,1.31.91,14.34L27.34,363.74Z"/><path class="cls-1" d="M237.35,0c-37.6,10.65-112.8,112-126.91,136.35,0,0-20.79,3.74-24.26,9.76L62.76,186.68l45.31-.16,14.54,12.21,3,47.51,34.56-60.38s9.05-13.19,3.68-19.64c8.44,6.82,1.81,19.42.35,22L151.73,210,163,244.54,186.4,204c3.48-6-3.68-25.89-3.68-25.89C196.79,153.66,246.93,37.89,237.35,0Z"/><polygon class="cls-1" points="255.37 60.3 223.41 133.18 246.86 173.8 191.93 268.94 117.69 268.94 70.55 333.06 117.59 292.44 205.5 292.44 274 173.8 243.72 121.35 255.37 60.3"/><polygon class="cls-1" points="176.11 14.54 128.97 78.66 82.07 78.66 27.14 173.8 64.26 238.09 32.31 310.98 43.96 249.93 0 173.79 68.5 55.15 129.06 55.15 176.11 14.54"/></g></g></svg>