<svg width="91" height="49" viewBox="0 0 91 49" fill="none" xmlns="http://www.w3.org/2000/svg">
<path fill-rule="evenodd" clip-rule="evenodd" d="M13.9342 36.9131V47.386V47.8064H16.0078V44.0113L17.9291 42.3841C18.3162 42.9245 18.7193 43.4917 19.1227 44.0595C20.0032 45.2989 20.8857 46.5406 21.7871 47.7599L21.8215 47.8064H24.3398L24.2101 47.6243C23.1038 46.0707 21.9941 44.5192 20.8849 42.9682L20.8474 42.9159L19.4558 40.9696L20.5481 39.9999C21.5828 39.0818 22.6146 38.1662 23.7942 37.114L24.0195 36.9131H21.1448L21.1131 36.9397C19.9226 37.934 18.7293 38.9971 17.5425 40.0544L17.5365 40.0597C17.04 40.5024 16.5439 40.9445 16.0078 41.416V36.9131H13.9342ZM30.5983 42.5198V47.386V47.8064H32.6713V42.537L34.0817 40.9624C35.2285 39.6823 36.3754 38.4019 37.5237 37.1237L37.696 36.9318H35.004L34.97 36.9694C34.2013 37.8235 33.4429 38.6736 32.6851 39.5231L32.613 39.6039L31.6456 40.6881L30.6196 39.5463C29.8077 38.642 28.9987 37.7411 28.3021 36.9694L28.2681 36.9318H25.5921L25.7644 37.1237C26.712 38.1791 27.8717 39.4744 29.0402 40.7794L29.206 40.9646L30.5983 42.5198ZM46.0212 41.3938C45.9599 41.3973 45.8923 41.399 45.819 41.399H43.8983C44.2775 42.0713 44.6582 42.7429 45.0397 43.4137H45.0462L45.811 44.7574L45.8293 44.7894C46.3874 45.7689 46.9462 46.7495 47.4995 47.7469L47.5325 47.8064H49.859L49.7617 47.6345C49.1674 46.5841 48.5749 45.532 47.9832 44.48L47.2863 43.2428L47.3741 43.211C47.4518 43.1814 47.5282 43.1491 47.6022 43.1146C47.6769 43.0798 47.749 43.0425 47.8173 43.0037C47.8982 42.9578 47.9783 42.9075 48.057 42.8524C48.1371 42.797 48.2122 42.7399 48.2815 42.6808C48.3532 42.6214 48.4216 42.5585 48.487 42.4932C48.5534 42.427 48.6169 42.3581 48.6763 42.2874L48.6867 42.276C48.7482 42.2015 48.8066 42.1247 48.8609 42.0457C48.9141 41.9689 48.9649 41.8881 49.0123 41.804C49.0584 41.7222 49.101 41.6387 49.1391 41.5536C49.1768 41.4693 49.212 41.3812 49.2434 41.29C49.2751 41.1984 49.3026 41.1066 49.3255 41.0148C49.3482 40.924 49.3677 40.8296 49.3833 40.7321C49.3991 40.6338 49.4111 40.5355 49.4187 40.4387C49.4691 39.7957 49.365 39.0981 49.0553 38.5285C49.0053 38.4364 48.9486 38.3458 48.8865 38.2566C48.826 38.1703 48.7599 38.0874 48.6894 38.0084C48.6185 37.9286 48.5419 37.8521 48.4603 37.7789C48.3798 37.7075 48.2954 37.6406 48.2079 37.5783C48.1211 37.5167 48.0289 37.4581 47.9324 37.4036C47.84 37.3512 47.7415 37.3024 47.6382 37.2572C47.5366 37.2129 47.4321 37.1729 47.3252 37.1382C47.2178 37.1038 47.1076 37.0731 46.9945 37.0474C46.882 37.022 46.7661 36.9999 46.6467 36.9832C46.5274 36.9661 46.4051 36.9531 46.2804 36.9446C46.1543 36.9359 46.0269 36.9318 45.8989 36.9318H39.7711V47.8064H41.8443V38.9288H45.8804C45.9472 38.9288 46.0093 38.9307 46.0665 38.9345C47.7032 39.0365 47.7542 41.1893 46.207 41.3766C46.1457 41.3846 46.0833 41.3901 46.0212 41.3938ZM51.8915 42.9834C52.1513 46.0975 54.5427 48.067 57.4311 48.067C57.6286 48.067 57.8236 48.0585 58.0148 48.0418C60.2583 47.8454 62.1703 46.3656 62.7989 44.1025C62.8485 43.9237 62.89 43.7406 62.9228 43.5547C62.9554 43.3683 62.9802 43.1776 62.9966 42.9834C63.0128 42.7897 63.0212 42.592 63.0212 42.391C63.0212 42.1906 63.0128 41.9931 62.9966 41.7994C62.98 41.6052 62.9554 41.4145 62.9226 41.2284C62.89 41.043 62.8485 40.8601 62.7987 40.6804C62.3027 38.8895 60.8887 37.4454 59.1137 36.9357C58.941 36.8863 58.7611 36.8441 58.5751 36.8103C58.3875 36.7759 58.1998 36.7508 58.0121 36.734C57.8216 36.7174 57.6274 36.7088 57.4311 36.7088C57.2353 36.7088 57.0419 36.7174 56.852 36.734C56.6651 36.7505 56.4779 36.7759 56.2914 36.81C54.4726 37.1425 52.9338 38.4083 52.2621 40.1484C52.1963 40.319 52.1382 40.4943 52.0888 40.6732C52.0392 40.8534 51.998 41.0368 51.9654 41.2224C51.9325 41.4093 51.9079 41.601 51.8915 41.7957C51.8753 41.9905 51.8669 42.1893 51.8669 42.391C51.8669 42.592 51.8751 42.7896 51.8915 42.9834ZM60.8313 43.1678C60.5939 44.5752 59.5704 45.7246 58.1603 45.9877C56.0901 46.3755 54.1766 45.0952 53.9932 42.7901C53.9828 42.6615 53.9775 42.5286 53.9775 42.391C53.9775 42.2541 53.9828 42.1212 53.9932 41.9929C54.0033 41.8633 54.0192 41.7372 54.0395 41.6158C54.06 41.4945 54.0858 41.3753 54.1168 41.2593C54.3831 40.2577 55.1051 39.3791 56.0618 38.9812C56.164 38.9386 56.2699 38.9008 56.3789 38.8683C56.4867 38.8362 56.5983 38.8092 56.7116 38.7877C56.8229 38.7666 56.9401 38.7505 57.0624 38.7391C57.1793 38.7288 57.3037 38.7233 57.4346 38.7233C59.5337 38.7233 60.8932 40.3092 60.8932 42.391C60.8932 42.5286 60.8879 42.6617 60.8776 42.7903C60.8674 42.9199 60.8516 43.0462 60.8313 43.1678ZM71.8703 41.399H70.6728H69.9549L71.801 44.6602L73.5852 47.8064H75.9103L75.8132 47.6345C75.13 46.4278 74.4495 45.2191 73.7691 44.0105C73.625 43.7546 73.481 43.4987 73.3369 43.2428L73.4252 43.211C73.5031 43.1814 73.5797 43.1489 73.654 43.1144C73.7284 43.0795 73.8003 43.0425 73.869 43.0037C73.9488 42.9586 74.0283 42.9082 74.1074 42.8534C74.1844 42.8 74.2598 42.7425 74.333 42.681C75.5001 41.7027 75.8394 39.8744 75.1047 38.5267C75.0539 38.4337 74.9978 38.3435 74.9371 38.2566C74.8767 38.1711 74.8107 38.0878 74.7392 38.0072C74.2943 37.5066 73.6913 37.1942 73.0458 37.0474C72.9333 37.022 72.817 36.9999 72.6981 36.9832C72.5785 36.9661 72.4564 36.9531 72.3318 36.9446C72.2054 36.9359 72.0782 36.9318 71.9504 36.9318H65.8231V47.8064H67.8952V38.9288H71.9315C71.9981 38.9288 72.06 38.9307 72.1167 38.9345C72.1763 38.938 72.2329 38.9439 72.2861 38.951C72.341 38.9587 72.3927 38.9682 72.4414 38.9792C73.679 39.2546 73.8692 41.399 71.8703 41.399ZM79.9494 47.8064L79.981 47.7433C80.7905 46.1434 81.5758 44.5177 82.3598 42.8949C82.8247 41.9324 83.2892 40.971 83.7579 40.0166C85.0423 42.611 86.3251 45.2061 87.5978 47.8064H89.8731C88.0938 44.18 86.3145 40.5542 84.5282 36.9318H82.9839C82.239 38.4613 81.4961 39.9917 80.7531 41.5221C79.7627 43.5622 78.7724 45.6024 77.7776 47.6403L77.6967 47.8064H79.9494ZM2.23734 44.4666L1.88631 44.1897L0.700195 45.9663L1.00781 46.2069C1.86898 46.883 2.85036 47.4121 3.90078 47.7169C4.01723 47.7506 4.13277 47.7819 4.24639 47.8095C4.36514 47.8387 4.4832 47.8648 4.59987 47.8881C5.77949 48.1235 7.1882 48.1539 8.34616 47.8229C8.48985 47.7821 8.62988 47.7354 8.76534 47.6842C9.52075 47.3974 10.2533 46.8988 10.7191 46.2246C10.7909 46.1202 10.8563 46.0119 10.9142 45.9012C10.9725 45.7894 11.0238 45.6746 11.0679 45.5564C11.1122 45.4366 11.1492 45.3155 11.1778 45.1927C11.4181 44.1798 11.1812 43.1323 10.4816 42.3601C10.4068 42.2766 10.3279 42.1972 10.2458 42.1216C10.1644 42.0474 10.0775 41.9756 9.98572 41.9062C9.89529 41.8383 9.80021 41.773 9.70206 41.712C9.60331 41.6505 9.50235 41.5933 9.39949 41.5408C9.29493 41.4874 9.18809 41.4385 9.07959 41.3942C8.97467 41.3512 8.86194 41.3103 8.7426 41.2723C8.62562 41.2344 8.50542 41.2006 8.3834 41.1708C8.25893 41.1408 8.13347 41.1145 8.00749 41.0924C7.75106 41.0472 7.34302 41.0189 6.87386 40.9864C5.71085 40.9058 4.17227 40.7992 3.63667 40.3444L3.58881 40.2968L3.53372 40.2317C3.42223 40.0729 3.3846 39.9431 3.41094 39.7499C3.41559 39.7169 3.4226 39.6852 3.43184 39.6551C3.44138 39.6233 3.45298 39.5925 3.46656 39.5635C3.47871 39.5377 3.49244 39.5128 3.50739 39.4892L3.51739 39.4754C4.33529 38.2129 7.10877 38.805 8.21131 39.3897C8.28876 39.4309 8.36531 39.4737 8.44032 39.5174C8.51739 39.5625 8.59425 39.6094 8.6695 39.6573C8.7458 39.7063 8.82067 39.7558 8.89277 39.806C8.96511 39.8561 9.03884 39.9098 9.11323 39.9662C9.19069 40.0247 9.26387 40.0818 9.33272 40.1376L9.68137 40.4194C10.006 39.9473 10.3322 39.4759 10.6582 39.0047C10.7347 38.8941 10.8112 38.7836 10.8876 38.6731L10.5604 38.429C10.4645 38.3579 10.3682 38.2885 10.2721 38.2223C10.1775 38.1573 10.0815 38.0937 9.98441 38.0322C9.88513 37.9694 9.78509 37.9085 9.6846 37.8504C9.58156 37.7903 9.48152 37.7345 9.38537 37.6839C9.2822 37.6292 9.1778 37.5766 9.07395 37.5263C8.96558 37.4741 8.86394 37.4273 8.76976 37.3863C8.67452 37.3453 8.57106 37.3028 8.45918 37.2596C8.35089 37.2174 8.24497 37.1786 8.14148 37.1438C6.71293 36.6601 4.94198 36.5096 3.51534 37.0409C3.3959 37.0857 3.27815 37.1353 3.16375 37.1896C3.05129 37.2434 2.9404 37.3028 2.83272 37.3668C2.72359 37.4314 2.6202 37.4995 2.5229 37.5706C2.42339 37.6435 2.32777 37.7208 2.23719 37.8019C2.14676 37.8827 2.0635 37.9654 1.98742 38.0494C1.90996 38.1355 1.838 38.2251 1.77237 38.3178C1.29596 38.9898 1.14837 39.8639 1.38364 40.6576C1.40127 40.7172 1.42157 40.7766 1.44408 40.8354C1.55832 41.1295 1.73536 41.4111 1.94911 41.6414C1.99597 41.6927 2.04183 41.7392 2.08601 41.7813C3.08739 42.7291 4.56845 42.8253 5.96628 42.9162C6.5563 42.9545 7.13148 42.9919 7.64952 43.0919C7.71834 43.1055 7.78802 43.1211 7.85777 43.1386C7.92255 43.1556 7.98856 43.1751 8.0548 43.197C8.4304 43.3205 8.84088 43.5557 9.01983 43.926C9.08653 44.0644 9.12019 44.2176 9.12019 44.385C9.12019 44.4455 9.11667 44.5036 9.11011 44.5592C8.88195 46.4585 5.66937 46.1112 4.59201 45.7586C4.50775 45.7308 4.41939 45.6986 4.32683 45.6636C3.57568 45.3775 2.87255 44.9599 2.23734 44.4666ZM82.6296 28.6159C77.4623 25.9105 71.9998 23.7733 66.3928 22.2631C63.176 21.3971 59.8683 20.7265 56.5601 20.27L56.5222 14.8845C56.3383 12.6641 55.4125 9.54264 53.8139 7.93612L53.7412 7.86342L53.6688 7.93612C52.028 9.58559 51.1092 12.7673 50.9498 15.0273C50.8673 16.4406 50.8952 18.0144 50.9223 19.5374L50.9226 19.5563L50.9248 19.6944C49.3988 19.5935 47.8581 19.5341 46.3434 19.5185L46.2399 19.5171V23.3513L46.2481 23.3917C47.4861 26.3325 47.5439 27.6136 45.4964 30.2571C43.4494 27.6144 43.507 26.3325 44.7452 23.3917L44.7534 19.5171L44.6495 19.5185C43.1351 19.5341 41.5945 19.5935 40.0684 19.6944L40.0705 19.5673C40.0979 18.0347 40.126 16.4498 40.0432 15.0263C39.8839 12.7677 38.9654 9.58559 37.3242 7.93612L37.2515 7.86342L37.179 7.93612C35.5804 9.54264 34.6544 12.6641 34.4704 14.8924L34.4333 20.27C31.1251 20.7265 27.8171 21.3971 24.6003 22.2631C18.9937 23.7733 13.5309 25.9105 8.36352 28.6159L8.2547 28.6727L9.57032 30.4055L9.6467 30.3657C14.5811 27.8116 19.7981 25.7856 25.152 24.3436C28.7755 23.3683 32.5658 22.6443 36.4181 22.1916L36.5088 22.1811V16.0925C36.5088 14.9107 36.7651 13.5463 37.2515 12.13C37.7379 13.5472 37.9944 14.9117 37.9944 16.0925V22.0239L38.1058 22.0143C39.8503 21.8626 41.3065 21.7692 42.6774 21.7205V23.3604C40.8312 27.417 42.3593 30.2081 45.4225 33.3937L45.4964 33.471L45.5702 33.3937C48.6336 30.2081 50.1617 27.417 48.3158 23.3604V21.7205C49.6868 21.7692 51.143 21.8626 52.8869 22.0143L52.9985 22.0239V16.0925C52.9985 14.9117 53.255 13.5472 53.7412 12.13C54.2279 13.5465 54.4844 14.9113 54.4844 16.0925V22.1811L54.5752 22.1916C58.4273 22.6443 62.2172 23.3683 65.8409 24.3436C71.1945 25.7856 76.4113 27.8116 81.3465 30.3657L81.4224 30.4055L82.7382 28.6727L82.6296 28.6159ZM39.7851 23.2945L40.0129 23.2809L40.0379 23.5094C40.3079 26.0398 38.6575 27.7634 37.4524 29.0218L37.28 29.2021L37.1083 29.021C35.8225 27.6726 34.4931 26.2784 34.4536 24.0811L34.4499 23.8701L34.6564 23.838C35.1565 23.7609 35.6736 23.6879 36.2374 23.614L36.5133 23.5773V23.8596C36.4781 24.7422 36.7788 25.2577 37.2802 25.9707C37.764 25.2696 37.981 24.7371 37.981 23.6689V23.4292L38.2166 23.4095C38.7394 23.3652 39.2616 23.3279 39.7851 23.2945ZM54.7602 23.614L54.4845 23.5773V23.8636C54.5197 24.7422 54.219 25.2577 53.7174 25.9707C53.2339 25.2696 53.0168 24.7371 53.0168 23.6689V23.4292L52.7816 23.4095C52.2584 23.3652 51.7362 23.3279 51.2123 23.2945L50.9849 23.2809L50.9601 23.5094C50.6897 26.0397 52.3403 27.7632 53.5454 29.0216L53.5457 29.0218L53.7178 29.2021L53.8895 29.021C55.1753 27.6726 56.5047 26.2784 56.5444 24.0811L56.5479 23.8701L56.3416 23.838C55.8413 23.7609 55.3244 23.6879 54.7602 23.614ZM44.6519 17.7767L44.7537 17.7757V8.06499C44.7537 6.89659 45.004 5.5499 45.4795 4.1518L45.5142 4.15239C45.9897 5.5499 46.2402 6.89659 46.2402 8.06499V17.7757L46.342 17.7767C46.9542 17.7828 47.5827 17.7966 48.2102 17.817L48.316 17.8206V8.06499C48.316 3.63586 45.5875 0.0431824 45.5599 0.0217094L45.532 3.8147e-05H45.4966C45.2917 3.8147e-05 42.6776 3.79425 42.6776 8.06499V17.8206L42.7837 17.817C43.4112 17.7966 44.0395 17.7828 44.6519 17.7767Z" fill="#000"/>
</svg>
